<mxfile host="app.diagrams.net" modified="2020-04-15T19:46:31.177Z" agent="5.0 (X11)" etag="kCrOa-xTD5qbwppr3tZc" version="12.9.12" type="github">
  <diagram id="r2NSekNp3wbSOlfvAG0S" name="Page-1">
    <mxGraphModel dx="1630" dy="925" grid="1" gridSize="10" guides="1" tooltips="1" connect="1" arrows="1" fold="1" page="1" pageScale="1" pageWidth="1169" pageHeight="827" math="0" shadow="0">
      <root>
        <mxCell id="0" />
        <mxCell id="1" parent="0" />
        <mxCell id="Jqj_em_PHmAIY5iKjUlL-1" value="&lt;div&gt;&lt;font style=&quot;font-size: 14px&quot; color=&quot;#3333FF&quot;&gt;&lt;b&gt;S3 &lt;br&gt;&lt;/b&gt;&lt;/font&gt;&lt;/div&gt;&lt;div&gt;&lt;font style=&quot;font-size: 14px&quot; color=&quot;#3333FF&quot;&gt;&lt;b&gt;Store&lt;/b&gt;&lt;/font&gt;&lt;/div&gt;" style="shape=cylinder;whiteSpace=wrap;html=1;boundedLbl=1;backgroundOutline=1;strokeColor=#3333FF;strokeWidth=2;fillColor=#FFFFFF;" parent="1" vertex="1">
          <mxGeometry x="427" y="460" width="60" height="80" as="geometry" />
        </mxCell>
        <mxCell id="Jqj_em_PHmAIY5iKjUlL-2" value="&lt;div&gt;&lt;font style=&quot;font-size: 14px&quot; color=&quot;#3333FF&quot;&gt;&lt;b&gt;DB&lt;br&gt;&lt;/b&gt;&lt;/font&gt;&lt;/div&gt;&lt;div&gt;&lt;font style=&quot;font-size: 14px&quot; color=&quot;#3333FF&quot;&gt;&lt;b&gt;Store&lt;/b&gt;&lt;/font&gt;&lt;/div&gt;" style="shape=cylinder;whiteSpace=wrap;html=1;boundedLbl=1;backgroundOutline=1;strokeColor=#3333FF;strokeWidth=2;fillColor=#FFFFFF;" parent="1" vertex="1">
          <mxGeometry x="427" y="350" width="60" height="80" as="geometry" />
        </mxCell>
        <mxCell id="Jqj_em_PHmAIY5iKjUlL-3" value="&lt;div&gt;&lt;font style=&quot;font-size: 14px&quot;&gt;&lt;b&gt;&lt;font style=&quot;font-size: 14px&quot; color=&quot;#3333FF&quot;&gt;Format&lt;br&gt;&lt;/font&gt;&lt;/b&gt;&lt;/font&gt;&lt;/div&gt;&lt;div&gt;&lt;font style=&quot;font-size: 14px&quot;&gt;&lt;b&gt;&lt;font style=&quot;font-size: 14px&quot; color=&quot;#3333FF&quot;&gt;Reader &lt;br&gt;&lt;/font&gt;&lt;/b&gt;&lt;/font&gt;&lt;/div&gt;" style="ellipse;whiteSpace=wrap;html=1;aspect=fixed;strokeColor=#3333FF;strokeWidth=2;fillColor=#FFFFFF;" parent="1" vertex="1">
          <mxGeometry x="600.75" y="360" width="60" height="60" as="geometry" />
        </mxCell>
        <mxCell id="Jqj_em_PHmAIY5iKjUlL-4" value="&lt;div style=&quot;font-size: 14px&quot;&gt;&lt;font style=&quot;font-size: 14px&quot;&gt;&lt;b&gt;&lt;font style=&quot;font-size: 14px&quot; color=&quot;#3333FF&quot;&gt;Memory&lt;/font&gt;&lt;/b&gt;&lt;/font&gt;&lt;/div&gt;&lt;div style=&quot;font-size: 14px&quot;&gt;&lt;font style=&quot;font-size: 14px&quot;&gt;&lt;b&gt;&lt;font style=&quot;font-size: 14px&quot; color=&quot;#3333FF&quot;&gt;Store&lt;br&gt;&lt;/font&gt;&lt;/b&gt;&lt;/font&gt;&lt;/div&gt;" style="shape=cube;whiteSpace=wrap;html=1;boundedLbl=1;backgroundOutline=1;darkOpacity=0.05;darkOpacity2=0.1;strokeColor=#3333FF;strokeWidth=2;fillColor=#FFFFFF;" parent="1" vertex="1">
          <mxGeometry x="424.5" y="574" width="85" height="66" as="geometry" />
        </mxCell>
        <mxCell id="Jqj_em_PHmAIY5iKjUlL-5" value="&lt;div&gt;&lt;font style=&quot;font-size: 14px&quot;&gt;&lt;b&gt;&lt;font style=&quot;font-size: 14px&quot; color=&quot;#3333FF&quot;&gt;File&lt;/font&gt;&lt;/b&gt;&lt;/font&gt;&lt;/div&gt;&lt;div&gt;&lt;font style=&quot;font-size: 14px&quot;&gt;&lt;b&gt;&lt;font style=&quot;font-size: 14px&quot; color=&quot;#3333FF&quot;&gt;Reader&lt;/font&gt;&lt;/b&gt;&lt;/font&gt;&lt;/div&gt;" style="ellipse;whiteSpace=wrap;html=1;aspect=fixed;strokeColor=#3333FF;strokeWidth=2;fillColor=#FFFFFF;" parent="1" vertex="1">
          <mxGeometry x="600.75" y="497" width="60" height="60" as="geometry" />
        </mxCell>
        <mxCell id="Jqj_em_PHmAIY5iKjUlL-6" value="&lt;div&gt;&lt;font style=&quot;font-size: 14px&quot;&gt;&lt;b&gt;&lt;font style=&quot;font-size: 14px&quot; color=&quot;#3333FF&quot;&gt;Memory&lt;/font&gt;&lt;/b&gt;&lt;/font&gt;&lt;/div&gt;&lt;div&gt;&lt;font style=&quot;font-size: 14px&quot;&gt;&lt;b&gt;&lt;font style=&quot;font-size: 14px&quot; color=&quot;#3333FF&quot;&gt;Reader&lt;/font&gt;&lt;/b&gt;&lt;/font&gt;&lt;/div&gt;" style="ellipse;whiteSpace=wrap;html=1;aspect=fixed;strokeColor=#3333FF;strokeWidth=2;fillColor=#FFFFFF;" parent="1" vertex="1">
          <mxGeometry x="603.25" y="567" width="60" height="60" as="geometry" />
        </mxCell>
        <mxCell id="Jqj_em_PHmAIY5iKjUlL-7" value="" style="endArrow=classic;html=1;exitX=1;exitY=0.5;exitDx=0;exitDy=0;entryX=0;entryY=0.5;entryDx=0;entryDy=0;strokeColor=#3333FF;strokeWidth=2;curved=1;" parent="1" source="Jqj_em_PHmAIY5iKjUlL-2" target="Jqj_em_PHmAIY5iKjUlL-3" edge="1">
          <mxGeometry width="50" height="50" relative="1" as="geometry">
            <mxPoint x="587" y="630" as="sourcePoint" />
            <mxPoint x="637" y="580" as="targetPoint" />
            <Array as="points">
              <mxPoint x="517" y="440" />
            </Array>
          </mxGeometry>
        </mxCell>
        <mxCell id="Jqj_em_PHmAIY5iKjUlL-8" value="" style="endArrow=classic;html=1;exitX=1;exitY=0.3;exitDx=0;exitDy=0;entryX=0;entryY=0.5;entryDx=0;entryDy=0;strokeColor=#3333FF;strokeWidth=2;curved=1;" parent="1" source="Jqj_em_PHmAIY5iKjUlL-1" target="Jqj_em_PHmAIY5iKjUlL-3" edge="1">
          <mxGeometry width="50" height="50" relative="1" as="geometry">
            <mxPoint x="497" y="400" as="sourcePoint" />
            <mxPoint x="577" y="480" as="targetPoint" />
            <Array as="points">
              <mxPoint x="524.5" y="470" />
            </Array>
          </mxGeometry>
        </mxCell>
        <mxCell id="Jqj_em_PHmAIY5iKjUlL-10" value="" style="endArrow=classic;html=1;exitX=1;exitY=0.7;exitDx=0;exitDy=0;entryX=0;entryY=0.5;entryDx=0;entryDy=0;strokeColor=#3333FF;strokeWidth=2;curved=1;" parent="1" source="Jqj_em_PHmAIY5iKjUlL-1" target="Jqj_em_PHmAIY5iKjUlL-5" edge="1">
          <mxGeometry width="50" height="50" relative="1" as="geometry">
            <mxPoint x="497" y="500" as="sourcePoint" />
            <mxPoint x="577" y="480" as="targetPoint" />
            <Array as="points">
              <mxPoint x="534.5" y="516" />
            </Array>
          </mxGeometry>
        </mxCell>
        <mxCell id="Jqj_em_PHmAIY5iKjUlL-13" value="" style="endArrow=classic;html=1;exitX=0;exitY=0;exitDx=85;exitDy=43;entryX=0;entryY=0.5;entryDx=0;entryDy=0;strokeColor=#3333FF;strokeWidth=2;exitPerimeter=0;curved=1;" parent="1" source="Jqj_em_PHmAIY5iKjUlL-4" target="Jqj_em_PHmAIY5iKjUlL-6" edge="1">
          <mxGeometry width="50" height="50" relative="1" as="geometry">
            <mxPoint x="497" y="530" as="sourcePoint" />
            <mxPoint x="597" y="524" as="targetPoint" />
            <Array as="points">
              <mxPoint x="537" y="594" />
            </Array>
          </mxGeometry>
        </mxCell>
        <mxCell id="7FE6NqRmgV_VChoBoQVg-7" style="edgeStyle=orthogonalEdgeStyle;rounded=0;orthogonalLoop=1;jettySize=auto;html=1;exitX=0.5;exitY=1;exitDx=0;exitDy=0;endArrow=none;endFill=0;strokeColor=#3333FF;strokeWidth=2;fontSize=14;fontColor=#3333FF;" edge="1" parent="1" source="Jqj_em_PHmAIY5iKjUlL-14" target="Jqj_em_PHmAIY5iKjUlL-15">
          <mxGeometry relative="1" as="geometry" />
        </mxCell>
        <mxCell id="Jqj_em_PHmAIY5iKjUlL-14" value="&lt;font color=&quot;#3333FF&quot;&gt;&lt;b&gt;&lt;font style=&quot;font-size: 14px&quot;&gt;ORCH&lt;/font&gt;&lt;/b&gt;&lt;/font&gt;" style="ellipse;whiteSpace=wrap;html=1;aspect=fixed;strokeColor=#3333FF;strokeWidth=2;fillColor=#FFFFFF;" parent="1" vertex="1">
          <mxGeometry x="603.25" y="180" width="60" height="60" as="geometry" />
        </mxCell>
        <mxCell id="Jqj_em_PHmAIY5iKjUlL-15" value="&lt;div&gt;&lt;font style=&quot;font-size: 14px&quot;&gt;&lt;b&gt;&lt;font style=&quot;font-size: 14px&quot; color=&quot;#3333FF&quot;&gt;CAT&lt;/font&gt;&lt;/b&gt;&lt;/font&gt;&lt;/div&gt;" style="ellipse;whiteSpace=wrap;html=1;aspect=fixed;strokeColor=#3333FF;strokeWidth=2;fillColor=#FFFFFF;" parent="1" vertex="1">
          <mxGeometry x="603.25" y="260" width="60" height="60" as="geometry" />
        </mxCell>
        <mxCell id="Jqj_em_PHmAIY5iKjUlL-16" value="&lt;font color=&quot;#3333FF&quot;&gt;&lt;b&gt;&lt;font style=&quot;font-size: 14px&quot;&gt;Orchestrator UI&lt;/font&gt;&lt;/b&gt;&lt;/font&gt;" style="rounded=1;whiteSpace=wrap;html=1;strokeColor=#3333FF;strokeWidth=2;fillColor=#FFFFFF;" parent="1" vertex="1">
          <mxGeometry x="804.5" y="40" width="140" height="60" as="geometry" />
        </mxCell>
        <mxCell id="Jqj_em_PHmAIY5iKjUlL-17" value="&lt;font color=&quot;#3333FF&quot;&gt;&lt;b&gt;&lt;font style=&quot;font-size: 14px&quot;&gt;Catalog UI&lt;/font&gt;&lt;/b&gt;&lt;/font&gt;" style="rounded=1;whiteSpace=wrap;html=1;strokeColor=#3333FF;strokeWidth=2;fillColor=#FFFFFF;" parent="1" vertex="1">
          <mxGeometry x="804.5" y="110" width="140" height="60" as="geometry" />
        </mxCell>
        <mxCell id="Jqj_em_PHmAIY5iKjUlL-18" value="&lt;font size=&quot;1&quot; color=&quot;#3333FF&quot;&gt;&lt;b style=&quot;font-size: 14px&quot;&gt;Users&lt;/b&gt;&lt;/font&gt;" style="shape=umlActor;verticalLabelPosition=bottom;labelBackgroundColor=#ffffff;verticalAlign=top;html=1;strokeColor=#3333FF;strokeWidth=2;fillColor=#FFFFFF;" parent="1" vertex="1">
          <mxGeometry x="1094.5" y="180" width="30" height="60" as="geometry" />
        </mxCell>
        <mxCell id="Jqj_em_PHmAIY5iKjUlL-19" value="" style="endArrow=none;html=1;strokeColor=#3333FF;strokeWidth=2;exitX=1;exitY=0.5;exitDx=0;exitDy=0;endFill=0;" parent="1" source="Jqj_em_PHmAIY5iKjUlL-14" target="Jqj_em_PHmAIY5iKjUlL-16" edge="1">
          <mxGeometry width="50" height="50" relative="1" as="geometry">
            <mxPoint x="654.5" y="640" as="sourcePoint" />
            <mxPoint x="704.5" y="590" as="targetPoint" />
          </mxGeometry>
        </mxCell>
        <mxCell id="Jqj_em_PHmAIY5iKjUlL-20" value="" style="endArrow=none;html=1;strokeColor=#3333FF;strokeWidth=2;exitX=1;exitY=0.5;exitDx=0;exitDy=0;entryX=0;entryY=0.5;entryDx=0;entryDy=0;endFill=0;" parent="1" source="Jqj_em_PHmAIY5iKjUlL-15" target="Jqj_em_PHmAIY5iKjUlL-17" edge="1">
          <mxGeometry width="50" height="50" relative="1" as="geometry">
            <mxPoint x="657" y="230" as="sourcePoint" />
            <mxPoint x="717" y="230" as="targetPoint" />
          </mxGeometry>
        </mxCell>
        <mxCell id="Jqj_em_PHmAIY5iKjUlL-21" value="" style="endArrow=none;html=1;strokeColor=#3333FF;strokeWidth=2;exitX=1;exitY=0.5;exitDx=0;exitDy=0;entryX=0.5;entryY=0.5;entryDx=0;entryDy=0;entryPerimeter=0;" parent="1" source="Jqj_em_PHmAIY5iKjUlL-16" target="Jqj_em_PHmAIY5iKjUlL-18" edge="1">
          <mxGeometry width="50" height="50" relative="1" as="geometry">
            <mxPoint x="654.5" y="640" as="sourcePoint" />
            <mxPoint x="704.5" y="590" as="targetPoint" />
          </mxGeometry>
        </mxCell>
        <mxCell id="Jqj_em_PHmAIY5iKjUlL-22" value="" style="endArrow=none;html=1;strokeColor=#3333FF;strokeWidth=2;exitX=1;exitY=0.5;exitDx=0;exitDy=0;entryX=0.5;entryY=0.5;entryDx=0;entryDy=0;entryPerimeter=0;" parent="1" source="Jqj_em_PHmAIY5iKjUlL-17" target="Jqj_em_PHmAIY5iKjUlL-18" edge="1">
          <mxGeometry width="50" height="50" relative="1" as="geometry">
            <mxPoint x="837" y="230" as="sourcePoint" />
            <mxPoint x="1014.5" y="258" as="targetPoint" />
          </mxGeometry>
        </mxCell>
        <mxCell id="Jqj_em_PHmAIY5iKjUlL-23" value="&lt;font style=&quot;font-size: 14px&quot; color=&quot;#3333FF&quot;&gt;&lt;b&gt;Interactive Visualization UI&lt;br&gt;&lt;/b&gt;&lt;/font&gt;" style="rounded=1;whiteSpace=wrap;html=1;strokeColor=#3333FF;strokeWidth=2;fillColor=#FFFFFF;" parent="1" vertex="1">
          <mxGeometry x="804.5" y="320" width="140" height="60" as="geometry" />
        </mxCell>
        <mxCell id="Jqj_em_PHmAIY5iKjUlL-24" value="&lt;font style=&quot;font-size: 14px&quot; color=&quot;#3333FF&quot;&gt;&lt;b&gt;Jupyter Notebooks&lt;/b&gt;&lt;/font&gt;" style="rounded=1;whiteSpace=wrap;html=1;strokeColor=#3333FF;strokeWidth=2;fillColor=#FFFFFF;" parent="1" vertex="1">
          <mxGeometry x="824.5" y="250" width="120" height="60" as="geometry" />
        </mxCell>
        <mxCell id="Jqj_em_PHmAIY5iKjUlL-25" value="&lt;font color=&quot;#3333FF&quot;&gt;&lt;b&gt;&lt;font style=&quot;font-size: 14px&quot;&gt;LIB&lt;/font&gt;&lt;/b&gt;&lt;/font&gt;" style="rounded=1;whiteSpace=wrap;html=1;strokeColor=#3333FF;strokeWidth=2;fillColor=#FFFFFF;" parent="1" vertex="1">
          <mxGeometry x="804.5" y="250" width="40" height="60" as="geometry" />
        </mxCell>
        <mxCell id="Jqj_em_PHmAIY5iKjUlL-27" value="" style="endArrow=none;html=1;strokeColor=#3333FF;strokeWidth=2;exitX=1;exitY=0.5;exitDx=0;exitDy=0;entryX=0;entryY=0.5;entryDx=0;entryDy=0;endFill=0;" parent="1" source="Jqj_em_PHmAIY5iKjUlL-5" target="Jqj_em_PHmAIY5iKjUlL-25" edge="1">
          <mxGeometry width="50" height="50" relative="1" as="geometry">
            <mxPoint x="654.5" y="620" as="sourcePoint" />
            <mxPoint x="704.5" y="570" as="targetPoint" />
          </mxGeometry>
        </mxCell>
        <mxCell id="Jqj_em_PHmAIY5iKjUlL-28" value="" style="endArrow=none;html=1;strokeColor=#3333FF;strokeWidth=2;exitX=1;exitY=0.5;exitDx=0;exitDy=0;entryX=0;entryY=0.75;entryDx=0;entryDy=0;endFill=0;" parent="1" source="Jqj_em_PHmAIY5iKjUlL-6" target="Jqj_em_PHmAIY5iKjUlL-25" edge="1">
          <mxGeometry width="50" height="50" relative="1" as="geometry">
            <mxPoint x="657" y="510" as="sourcePoint" />
            <mxPoint x="704.5" y="520" as="targetPoint" />
          </mxGeometry>
        </mxCell>
        <mxCell id="Jqj_em_PHmAIY5iKjUlL-30" value="" style="endArrow=none;html=1;strokeColor=#3333FF;strokeWidth=2;entryX=0;entryY=0.25;entryDx=0;entryDy=0;exitX=1;exitY=0.5;exitDx=0;exitDy=0;endFill=0;" parent="1" source="Jqj_em_PHmAIY5iKjUlL-3" target="Jqj_em_PHmAIY5iKjUlL-25" edge="1">
          <mxGeometry width="50" height="50" relative="1" as="geometry">
            <mxPoint x="649.5" y="428" as="sourcePoint" />
            <mxPoint x="704.5" y="570" as="targetPoint" />
          </mxGeometry>
        </mxCell>
        <mxCell id="Jqj_em_PHmAIY5iKjUlL-31" value="" style="endArrow=none;html=1;strokeColor=#3333FF;strokeWidth=2;exitX=1;exitY=0.5;exitDx=0;exitDy=0;entryX=0;entryY=0.5;entryDx=0;entryDy=0;endFill=0;" parent="1" source="Jqj_em_PHmAIY5iKjUlL-3" target="Jqj_em_PHmAIY5iKjUlL-23" edge="1">
          <mxGeometry width="50" height="50" relative="1" as="geometry">
            <mxPoint x="654.5" y="620" as="sourcePoint" />
            <mxPoint x="704.5" y="570" as="targetPoint" />
          </mxGeometry>
        </mxCell>
        <mxCell id="Jqj_em_PHmAIY5iKjUlL-32" value="" style="endArrow=none;html=1;strokeColor=#3333FF;strokeWidth=2;exitX=1;exitY=0.5;exitDx=0;exitDy=0;entryX=0;entryY=0.5;entryDx=0;entryDy=0;endFill=0;" parent="1" source="Jqj_em_PHmAIY5iKjUlL-6" target="Jqj_em_PHmAIY5iKjUlL-23" edge="1">
          <mxGeometry width="50" height="50" relative="1" as="geometry">
            <mxPoint x="654.5" y="620" as="sourcePoint" />
            <mxPoint x="704.5" y="570" as="targetPoint" />
          </mxGeometry>
        </mxCell>
        <mxCell id="Jqj_em_PHmAIY5iKjUlL-35" value="" style="endArrow=none;html=1;strokeColor=#3333FF;strokeWidth=2;exitX=1;exitY=0.5;exitDx=0;exitDy=0;entryX=0;entryY=0.5;entryDx=0;entryDy=0;endFill=0;" parent="1" source="Jqj_em_PHmAIY5iKjUlL-3" target="7FE6NqRmgV_VChoBoQVg-9" edge="1">
          <mxGeometry width="50" height="50" relative="1" as="geometry">
            <mxPoint x="654.5" y="620" as="sourcePoint" />
            <mxPoint x="810" y="210" as="targetPoint" />
          </mxGeometry>
        </mxCell>
        <mxCell id="Jqj_em_PHmAIY5iKjUlL-37" value="" style="endArrow=none;html=1;strokeColor=#3333FF;strokeWidth=2;entryX=0.963;entryY=0.5;entryDx=0;entryDy=0;exitX=0.5;exitY=0.5;exitDx=0;exitDy=0;exitPerimeter=0;entryPerimeter=0;" parent="1" source="Jqj_em_PHmAIY5iKjUlL-18" target="7FE6NqRmgV_VChoBoQVg-8" edge="1">
          <mxGeometry width="50" height="50" relative="1" as="geometry">
            <mxPoint x="654.5" y="620" as="sourcePoint" />
            <mxPoint x="940" y="210" as="targetPoint" />
          </mxGeometry>
        </mxCell>
        <mxCell id="Jqj_em_PHmAIY5iKjUlL-38" value="" style="endArrow=none;html=1;strokeColor=#3333FF;strokeWidth=2;entryX=1;entryY=0.5;entryDx=0;entryDy=0;exitX=0.5;exitY=0.5;exitDx=0;exitDy=0;exitPerimeter=0;" parent="1" source="Jqj_em_PHmAIY5iKjUlL-18" target="Jqj_em_PHmAIY5iKjUlL-24" edge="1">
          <mxGeometry width="50" height="50" relative="1" as="geometry">
            <mxPoint x="1094.5" y="410" as="sourcePoint" />
            <mxPoint x="894.5" y="420" as="targetPoint" />
          </mxGeometry>
        </mxCell>
        <mxCell id="Jqj_em_PHmAIY5iKjUlL-39" value="" style="endArrow=none;html=1;strokeColor=#3333FF;strokeWidth=2;entryX=1;entryY=0.5;entryDx=0;entryDy=0;exitX=0.5;exitY=0.5;exitDx=0;exitDy=0;exitPerimeter=0;" parent="1" source="Jqj_em_PHmAIY5iKjUlL-18" target="Jqj_em_PHmAIY5iKjUlL-23" edge="1">
          <mxGeometry width="50" height="50" relative="1" as="geometry">
            <mxPoint x="1104.5" y="330" as="sourcePoint" />
            <mxPoint x="904.5" y="430" as="targetPoint" />
          </mxGeometry>
        </mxCell>
        <mxCell id="fJw50IXRXmYTmHG4fuBE-7" value="&lt;div&gt;&lt;font size=&quot;1&quot; color=&quot;#3333FF&quot;&gt;&lt;b style=&quot;font-size: 14px&quot;&gt;Downstream&lt;/b&gt;&lt;/font&gt;&lt;/div&gt;&lt;div&gt;&lt;font size=&quot;1&quot; color=&quot;#3333FF&quot;&gt;&lt;b style=&quot;font-size: 14px&quot;&gt;Systems&lt;/b&gt;&lt;/font&gt;&lt;/div&gt;" style="whiteSpace=wrap;html=1;aspect=fixed;strokeColor=#3333FF;strokeWidth=2;fillColor=#FFFFFF;" parent="1" vertex="1">
          <mxGeometry x="1054.5" y="494" width="96" height="96" as="geometry" />
        </mxCell>
        <mxCell id="fJw50IXRXmYTmHG4fuBE-11" value="" style="endArrow=none;html=1;strokeColor=#3333FF;strokeWidth=2;entryX=0;entryY=0.5;entryDx=0;entryDy=0;curved=1;endFill=0;" parent="1" source="Jqj_em_PHmAIY5iKjUlL-3" target="fJw50IXRXmYTmHG4fuBE-7" edge="1">
          <mxGeometry width="50" height="50" relative="1" as="geometry">
            <mxPoint x="624.5" y="500" as="sourcePoint" />
            <mxPoint x="674.5" y="450" as="targetPoint" />
            <Array as="points">
              <mxPoint x="834.5" y="510" />
            </Array>
          </mxGeometry>
        </mxCell>
        <mxCell id="fJw50IXRXmYTmHG4fuBE-12" value="" style="endArrow=none;html=1;strokeColor=#3333FF;strokeWidth=2;entryX=0;entryY=0.5;entryDx=0;entryDy=0;curved=1;exitX=0.975;exitY=0.633;exitDx=0;exitDy=0;exitPerimeter=0;endFill=0;" parent="1" source="Jqj_em_PHmAIY5iKjUlL-5" target="fJw50IXRXmYTmHG4fuBE-7" edge="1">
          <mxGeometry width="50" height="50" relative="1" as="geometry">
            <mxPoint x="651.8109943238965" y="432.4140883290438" as="sourcePoint" />
            <mxPoint x="1064.5" y="549" as="targetPoint" />
            <Array as="points">
              <mxPoint x="844.5" y="520" />
            </Array>
          </mxGeometry>
        </mxCell>
        <mxCell id="fJw50IXRXmYTmHG4fuBE-13" value="" style="endArrow=none;html=1;strokeColor=#3333FF;strokeWidth=2;entryX=0;entryY=0.5;entryDx=0;entryDy=0;curved=1;exitX=1;exitY=0.5;exitDx=0;exitDy=0;endFill=0;" parent="1" source="Jqj_em_PHmAIY5iKjUlL-6" target="fJw50IXRXmYTmHG4fuBE-7" edge="1">
          <mxGeometry width="50" height="50" relative="1" as="geometry">
            <mxPoint x="661.8109943238965" y="442.4140883290438" as="sourcePoint" />
            <mxPoint x="1074.5" y="559" as="targetPoint" />
            <Array as="points">
              <mxPoint x="854.5" y="530" />
            </Array>
          </mxGeometry>
        </mxCell>
        <mxCell id="fJw50IXRXmYTmHG4fuBE-14" value="" style="endArrow=none;html=1;strokeColor=#3333FF;strokeWidth=2;curved=1;exitX=1;exitY=1;exitDx=0;exitDy=0;entryX=0;entryY=0.5;entryDx=0;entryDy=0;endFill=0;" parent="1" source="Jqj_em_PHmAIY5iKjUlL-15" target="fJw50IXRXmYTmHG4fuBE-7" edge="1">
          <mxGeometry width="50" height="50" relative="1" as="geometry">
            <mxPoint x="671.8109943238965" y="452.4140883290438" as="sourcePoint" />
            <mxPoint x="1044.5" y="540" as="targetPoint" />
            <Array as="points">
              <mxPoint x="864.5" y="540" />
            </Array>
          </mxGeometry>
        </mxCell>
        <mxCell id="fJw50IXRXmYTmHG4fuBE-15" value="" style="endArrow=none;html=1;strokeColor=#3333FF;strokeWidth=2;curved=1;exitX=1;exitY=1;exitDx=0;exitDy=0;entryX=0;entryY=0.5;entryDx=0;entryDy=0;endFill=0;" parent="1" source="Jqj_em_PHmAIY5iKjUlL-14" target="fJw50IXRXmYTmHG4fuBE-7" edge="1">
          <mxGeometry width="50" height="50" relative="1" as="geometry">
            <mxPoint x="681.8109943238965" y="462.4140883290438" as="sourcePoint" />
            <mxPoint x="1044.5" y="540" as="targetPoint" />
            <Array as="points">
              <mxPoint x="844.5" y="550" />
            </Array>
          </mxGeometry>
        </mxCell>
        <mxCell id="fJw50IXRXmYTmHG4fuBE-22" value="&lt;font style=&quot;font-size: 14px&quot; color=&quot;#3333FF&quot;&gt;&lt;b&gt;Data Upload UI&lt;br&gt;&lt;/b&gt;&lt;/font&gt;" style="rounded=1;whiteSpace=wrap;html=1;strokeColor=#3333FF;strokeWidth=2;fillColor=#FFFFFF;" parent="1" vertex="1">
          <mxGeometry x="804.5" y="390" width="140" height="60" as="geometry" />
        </mxCell>
        <mxCell id="fJw50IXRXmYTmHG4fuBE-23" value="&lt;div&gt;&lt;font style=&quot;font-size: 14px&quot;&gt;&lt;b&gt;&lt;font style=&quot;font-size: 14px&quot; color=&quot;#3333FF&quot;&gt;File Writer&lt;br&gt;&lt;/font&gt;&lt;/b&gt;&lt;/font&gt;&lt;/div&gt;" style="ellipse;whiteSpace=wrap;html=1;aspect=fixed;strokeColor=#3333FF;strokeWidth=2;fillColor=#FFFFFF;" parent="1" vertex="1">
          <mxGeometry x="600.75" y="430" width="60" height="60" as="geometry" />
        </mxCell>
        <mxCell id="fJw50IXRXmYTmHG4fuBE-24" value="" style="endArrow=classic;html=1;strokeColor=#3333FF;strokeWidth=2;exitX=0;exitY=0.5;exitDx=0;exitDy=0;entryX=1;entryY=0.5;entryDx=0;entryDy=0;curved=1;" parent="1" source="fJw50IXRXmYTmHG4fuBE-23" target="Jqj_em_PHmAIY5iKjUlL-1" edge="1">
          <mxGeometry width="50" height="50" relative="1" as="geometry">
            <mxPoint x="624.5" y="500" as="sourcePoint" />
            <mxPoint x="674.5" y="450" as="targetPoint" />
            <Array as="points">
              <mxPoint x="504.5" y="500" />
            </Array>
          </mxGeometry>
        </mxCell>
        <mxCell id="fJw50IXRXmYTmHG4fuBE-25" value="" style="endArrow=none;html=1;strokeColor=#3333FF;strokeWidth=2;entryX=0;entryY=0.5;entryDx=0;entryDy=0;exitX=1;exitY=0.5;exitDx=0;exitDy=0;" parent="1" source="fJw50IXRXmYTmHG4fuBE-23" target="fJw50IXRXmYTmHG4fuBE-22" edge="1">
          <mxGeometry width="50" height="50" relative="1" as="geometry">
            <mxPoint x="624.5" y="500" as="sourcePoint" />
            <mxPoint x="674.5" y="450" as="targetPoint" />
          </mxGeometry>
        </mxCell>
        <mxCell id="fJw50IXRXmYTmHG4fuBE-26" value="" style="endArrow=none;html=1;strokeColor=#3333FF;strokeWidth=2;entryX=0;entryY=0.5;entryDx=0;entryDy=0;exitX=0.958;exitY=0.667;exitDx=0;exitDy=0;exitPerimeter=0;" parent="1" source="Jqj_em_PHmAIY5iKjUlL-15" target="fJw50IXRXmYTmHG4fuBE-22" edge="1">
          <mxGeometry width="50" height="50" relative="1" as="geometry">
            <mxPoint x="624.5" y="500" as="sourcePoint" />
            <mxPoint x="674.5" y="450" as="targetPoint" />
          </mxGeometry>
        </mxCell>
        <mxCell id="fJw50IXRXmYTmHG4fuBE-36" style="edgeStyle=orthogonalEdgeStyle;curved=1;orthogonalLoop=1;jettySize=auto;html=1;exitX=0.5;exitY=0;exitDx=0;exitDy=0;entryX=0;entryY=0.5;entryDx=0;entryDy=0;endArrow=none;endFill=0;strokeColor=#3333FF;strokeWidth=2;" parent="1" source="fJw50IXRXmYTmHG4fuBE-27" target="Jqj_em_PHmAIY5iKjUlL-14" edge="1">
          <mxGeometry relative="1" as="geometry" />
        </mxCell>
        <mxCell id="fJw50IXRXmYTmHG4fuBE-38" style="edgeStyle=orthogonalEdgeStyle;curved=1;orthogonalLoop=1;jettySize=auto;html=1;exitX=0.5;exitY=0;exitDx=0;exitDy=0;entryX=0;entryY=0.5;entryDx=0;entryDy=0;endArrow=none;endFill=0;strokeColor=#3333FF;strokeWidth=2;" parent="1" source="fJw50IXRXmYTmHG4fuBE-27" target="Jqj_em_PHmAIY5iKjUlL-15" edge="1">
          <mxGeometry relative="1" as="geometry" />
        </mxCell>
        <mxCell id="fJw50IXRXmYTmHG4fuBE-27" value="" style="ellipse;whiteSpace=wrap;html=1;aspect=fixed;strokeColor=#3333FF;strokeWidth=2;fillColor=#FFFFFF;" parent="1" vertex="1">
          <mxGeometry x="214.5" y="415" width="80" height="80" as="geometry" />
        </mxCell>
        <mxCell id="fJw50IXRXmYTmHG4fuBE-28" value="" style="ellipse;whiteSpace=wrap;html=1;aspect=fixed;strokeColor=#3333FF;strokeWidth=2;fillColor=#FFFFFF;" parent="1" vertex="1">
          <mxGeometry x="224.5" y="425" width="80" height="80" as="geometry" />
        </mxCell>
        <mxCell id="fJw50IXRXmYTmHG4fuBE-29" value="" style="ellipse;whiteSpace=wrap;html=1;aspect=fixed;strokeColor=#3333FF;strokeWidth=2;fillColor=#FFFFFF;" parent="1" vertex="1">
          <mxGeometry x="234.5" y="435" width="80" height="80" as="geometry" />
        </mxCell>
        <mxCell id="fJw50IXRXmYTmHG4fuBE-32" style="edgeStyle=orthogonalEdgeStyle;curved=1;orthogonalLoop=1;jettySize=auto;html=1;entryX=0;entryY=0.5;entryDx=0;entryDy=0;endArrow=none;endFill=0;strokeColor=#3333FF;strokeWidth=2;" parent="1" target="Jqj_em_PHmAIY5iKjUlL-2" edge="1">
          <mxGeometry relative="1" as="geometry">
            <mxPoint x="324.5" y="485" as="sourcePoint" />
          </mxGeometry>
        </mxCell>
        <mxCell id="fJw50IXRXmYTmHG4fuBE-33" style="edgeStyle=orthogonalEdgeStyle;curved=1;orthogonalLoop=1;jettySize=auto;html=1;exitX=1;exitY=0.5;exitDx=0;exitDy=0;entryX=0;entryY=0.5;entryDx=0;entryDy=0;endArrow=none;endFill=0;strokeColor=#3333FF;strokeWidth=2;" parent="1" source="fJw50IXRXmYTmHG4fuBE-30" target="Jqj_em_PHmAIY5iKjUlL-1" edge="1">
          <mxGeometry relative="1" as="geometry">
            <Array as="points">
              <mxPoint x="374.5" y="485" />
              <mxPoint x="374.5" y="500" />
            </Array>
          </mxGeometry>
        </mxCell>
        <mxCell id="fJw50IXRXmYTmHG4fuBE-34" style="edgeStyle=orthogonalEdgeStyle;curved=1;orthogonalLoop=1;jettySize=auto;html=1;exitX=1;exitY=0.5;exitDx=0;exitDy=0;entryX=0;entryY=0;entryDx=0;entryDy=23;entryPerimeter=0;endArrow=none;endFill=0;strokeColor=#3333FF;strokeWidth=2;" parent="1" source="fJw50IXRXmYTmHG4fuBE-30" target="Jqj_em_PHmAIY5iKjUlL-4" edge="1">
          <mxGeometry relative="1" as="geometry" />
        </mxCell>
        <mxCell id="fJw50IXRXmYTmHG4fuBE-30" value="&lt;div&gt;&lt;font size=&quot;1&quot; color=&quot;#3333FF&quot;&gt;&lt;b style=&quot;font-size: 14px&quot;&gt;Data Processing&lt;/b&gt;&lt;/font&gt;&lt;/div&gt;&lt;div&gt;&lt;font size=&quot;1&quot; color=&quot;#3333FF&quot;&gt;&lt;b style=&quot;font-size: 14px&quot;&gt;Functions&lt;/b&gt;&lt;/font&gt;&lt;/div&gt;" style="ellipse;whiteSpace=wrap;html=1;aspect=fixed;strokeColor=#3333FF;strokeWidth=2;fillColor=#FFFFFF;" parent="1" vertex="1">
          <mxGeometry x="244.5" y="445" width="80" height="80" as="geometry" />
        </mxCell>
        <mxCell id="fJw50IXRXmYTmHG4fuBE-41" style="edgeStyle=orthogonalEdgeStyle;curved=1;orthogonalLoop=1;jettySize=auto;html=1;exitX=1;exitY=0.5;exitDx=0;exitDy=0;endArrow=none;endFill=0;strokeColor=#3333FF;strokeWidth=2;" parent="1" source="fJw50IXRXmYTmHG4fuBE-39" edge="1">
          <mxGeometry relative="1" as="geometry">
            <mxPoint x="214.5" y="457" as="targetPoint" />
          </mxGeometry>
        </mxCell>
        <mxCell id="fJw50IXRXmYTmHG4fuBE-39" value="&lt;font style=&quot;font-size: 14px&quot; color=&quot;#3333FF&quot;&gt;&lt;b&gt;Upstream Sources&lt;/b&gt;&lt;/font&gt;" style="whiteSpace=wrap;html=1;aspect=fixed;strokeColor=#3333FF;strokeWidth=2;fillColor=#FFFFFF;" parent="1" vertex="1">
          <mxGeometry x="34.5" y="419" width="96" height="96" as="geometry" />
        </mxCell>
        <mxCell id="fJw50IXRXmYTmHG4fuBE-42" value="" style="endArrow=none;dashed=1;html=1;strokeColor=#3333FF;strokeWidth=1;" parent="1" edge="1">
          <mxGeometry width="50" height="50" relative="1" as="geometry">
            <mxPoint x="174.5" y="770" as="sourcePoint" />
            <mxPoint x="174.5" y="20" as="targetPoint" />
          </mxGeometry>
        </mxCell>
        <mxCell id="fJw50IXRXmYTmHG4fuBE-43" value="" style="endArrow=none;dashed=1;html=1;strokeColor=#3333FF;strokeWidth=1;" parent="1" edge="1">
          <mxGeometry width="50" height="50" relative="1" as="geometry">
            <mxPoint x="374.5" y="765" as="sourcePoint" />
            <mxPoint x="374.5" y="15" as="targetPoint" />
          </mxGeometry>
        </mxCell>
        <mxCell id="fJw50IXRXmYTmHG4fuBE-44" value="" style="endArrow=none;dashed=1;html=1;strokeColor=#3333FF;strokeWidth=1;" parent="1" edge="1">
          <mxGeometry width="50" height="50" relative="1" as="geometry">
            <mxPoint x="544.5" y="765" as="sourcePoint" />
            <mxPoint x="544.5" y="15" as="targetPoint" />
          </mxGeometry>
        </mxCell>
        <mxCell id="fJw50IXRXmYTmHG4fuBE-45" value="" style="endArrow=none;dashed=1;html=1;strokeColor=#3333FF;strokeWidth=1;" parent="1" edge="1">
          <mxGeometry width="50" height="50" relative="1" as="geometry">
            <mxPoint x="734.5" y="765" as="sourcePoint" />
            <mxPoint x="734.5" y="15" as="targetPoint" />
          </mxGeometry>
        </mxCell>
        <mxCell id="fJw50IXRXmYTmHG4fuBE-46" value="" style="endArrow=none;dashed=1;html=1;strokeColor=#3333FF;strokeWidth=1;" parent="1" edge="1">
          <mxGeometry width="50" height="50" relative="1" as="geometry">
            <mxPoint x="1004.5" y="765" as="sourcePoint" />
            <mxPoint x="1004.5" y="15" as="targetPoint" />
          </mxGeometry>
        </mxCell>
        <mxCell id="fJw50IXRXmYTmHG4fuBE-47" value="&lt;b&gt;&lt;font style=&quot;font-size: 14px&quot; color=&quot;#3333FF&quot;&gt;Data Prcessing Layer&lt;/font&gt;&lt;/b&gt;" style="text;html=1;strokeColor=none;fillColor=none;align=center;verticalAlign=middle;whiteSpace=wrap;rounded=0;" parent="1" vertex="1">
          <mxGeometry x="207" y="750" width="155" height="20" as="geometry" />
        </mxCell>
        <mxCell id="fJw50IXRXmYTmHG4fuBE-48" value="&lt;b&gt;&lt;font style=&quot;font-size: 14px&quot; color=&quot;#3333FF&quot;&gt;Storage Layer&lt;/font&gt;&lt;/b&gt;" style="text;html=1;strokeColor=none;fillColor=none;align=center;verticalAlign=middle;whiteSpace=wrap;rounded=0;" parent="1" vertex="1">
          <mxGeometry x="379.5" y="750" width="155" height="20" as="geometry" />
        </mxCell>
        <mxCell id="fJw50IXRXmYTmHG4fuBE-49" value="&lt;b&gt;&lt;font style=&quot;font-size: 14px&quot; color=&quot;#3333FF&quot;&gt;API Layer&lt;/font&gt;&lt;/b&gt;" style="text;html=1;strokeColor=none;fillColor=none;align=center;verticalAlign=middle;whiteSpace=wrap;rounded=0;" parent="1" vertex="1">
          <mxGeometry x="554.5" y="750" width="155" height="20" as="geometry" />
        </mxCell>
        <mxCell id="fJw50IXRXmYTmHG4fuBE-50" value="&lt;b&gt;&lt;font style=&quot;font-size: 14px&quot; color=&quot;#3333FF&quot;&gt;UI Layer&lt;/font&gt;&lt;/b&gt;" style="text;html=1;strokeColor=none;fillColor=none;align=center;verticalAlign=middle;whiteSpace=wrap;rounded=0;" parent="1" vertex="1">
          <mxGeometry x="797" y="750" width="155" height="20" as="geometry" />
        </mxCell>
        <mxCell id="fJw50IXRXmYTmHG4fuBE-51" value="&lt;b&gt;&lt;font style=&quot;font-size: 14px&quot; color=&quot;#3333FF&quot;&gt;Clients&lt;/font&gt;&lt;/b&gt;" style="text;html=1;strokeColor=none;fillColor=none;align=center;verticalAlign=middle;whiteSpace=wrap;rounded=0;" parent="1" vertex="1">
          <mxGeometry x="1008.5" y="750" width="155" height="20" as="geometry" />
        </mxCell>
        <mxCell id="fJw50IXRXmYTmHG4fuBE-54" value="&lt;font size=&quot;1&quot; color=&quot;#3333FF&quot;&gt;&lt;b style=&quot;font-size: 14px&quot;&gt;Upstream&lt;/b&gt;&lt;/font&gt;" style="text;html=1;strokeColor=none;fillColor=none;align=center;verticalAlign=middle;whiteSpace=wrap;rounded=0;" parent="1" vertex="1">
          <mxGeometry x="5" y="750" width="155" height="20" as="geometry" />
        </mxCell>
        <mxCell id="fJw50IXRXmYTmHG4fuBE-56" value="" style="endArrow=none;html=1;strokeColor=#3333FF;strokeWidth=2;entryX=1;entryY=0.5;entryDx=0;entryDy=0;exitX=0.5;exitY=0.5;exitDx=0;exitDy=0;exitPerimeter=0;" parent="1" source="Jqj_em_PHmAIY5iKjUlL-18" target="fJw50IXRXmYTmHG4fuBE-22" edge="1">
          <mxGeometry width="50" height="50" relative="1" as="geometry">
            <mxPoint x="1119.5" y="220" as="sourcePoint" />
            <mxPoint x="954.5" y="360" as="targetPoint" />
          </mxGeometry>
        </mxCell>
        <mxCell id="fJw50IXRXmYTmHG4fuBE-123" value="TARGET STATE" style="text;html=1;strokeColor=none;fillColor=none;align=center;verticalAlign=middle;whiteSpace=wrap;rounded=0;fontColor=#3333FF;fontSize=26;" parent="1" vertex="1">
          <mxGeometry x="450" y="10" width="220.5" height="20" as="geometry" />
        </mxCell>
        <mxCell id="7FE6NqRmgV_VChoBoQVg-1" value="" style="endArrow=none;html=1;strokeColor=#3333FF;strokeWidth=2;entryX=0;entryY=0.25;entryDx=0;entryDy=0;endFill=0;" edge="1" parent="1" source="Jqj_em_PHmAIY5iKjUlL-15" target="Jqj_em_PHmAIY5iKjUlL-25">
          <mxGeometry width="50" height="50" relative="1" as="geometry">
            <mxPoint x="670.75" y="400" as="sourcePoint" />
            <mxPoint x="814.5" y="275" as="targetPoint" />
          </mxGeometry>
        </mxCell>
        <mxCell id="7FE6NqRmgV_VChoBoQVg-8" value="&lt;font style=&quot;font-size: 14px&quot;&gt;&lt;b&gt;&lt;font style=&quot;font-size: 14px&quot; color=&quot;#3333FF&quot;&gt;Excel&lt;/font&gt;&lt;/b&gt;&lt;/font&gt;" style="rounded=1;whiteSpace=wrap;html=1;strokeColor=#3333FF;strokeWidth=2;fillColor=#FFFFFF;" vertex="1" parent="1">
          <mxGeometry x="824.5" y="180" width="120" height="60" as="geometry" />
        </mxCell>
        <mxCell id="7FE6NqRmgV_VChoBoQVg-9" value="&lt;font size=&quot;1&quot;&gt;&lt;b&gt;&lt;font style=&quot;font-size: 14px&quot; color=&quot;#3333FF&quot;&gt;PQ&lt;/font&gt;&lt;/b&gt;&lt;/font&gt;" style="rounded=1;whiteSpace=wrap;html=1;strokeColor=#3333FF;strokeWidth=2;fillColor=#FFFFFF;" vertex="1" parent="1">
          <mxGeometry x="804.5" y="180" width="40" height="60" as="geometry" />
        </mxCell>
      </root>
    </mxGraphModel>
  </diagram>
</mxfile>
